<svg width="697" height="400" viewBox="0 0 697 400" xmlns="http://www.w3.org/2000/svg"><defs><pattern id="satori_pattern_id_0" x="0" y="0" width="1" height="1" patternUnits="objectBoundingBox"><linearGradient id="satori_biid_0" x1="0" y1="0" x2="0" y2="1" spreadMethod="pad"><stop offset="0%" stop-color="#dbf4ff"/><stop offset="100%" stop-color="#fff1f1"/></linearGradient><rect x="0" y="0" width="697" height="400" fill="url(#satori_biid_0)"/></pattern></defs><mask id="satori_om-id"><rect x="0" y="0" width="697" height="400" fill="#fff"/></mask><rect x="0" y="0" width="697" height="400" fill="url(#satori_pattern_id_0)"/><clipPath id="satori_bct-id-0"><path d="M281.9 127.2L281.9 127.2Q281.9 134.3 279.2 139.3Q276.5 144.3 271.9 147.0Q267.2 149.6 261.5 149.6L261.5 149.6Q255.6 149.6 251.0 147.0Q246.4 144.3 243.7 139.3Q241.0 134.3 241.0 127.2L241.0 127.2Q241.0 120.0 243.7 115.0Q246.4 110.0 251.0 107.4Q255.6 104.8 261.5 104.8L261.5 104.8Q267.2 104.8 271.9 107.4Q276.5 110.0 279.2 115.0Q281.9 120.0 281.9 127.2ZM272.5 127.2L272.5 127.2Q272.5 122.6 271.2 119.4Q269.8 116.2 267.3 114.6Q264.8 112.9 261.5 112.9L261.5 112.9Q258.1 112.9 255.6 114.6Q253.1 116.2 251.8 119.4Q250.4 122.6 250.4 127.2L250.4 127.2Q250.4 131.8 251.8 135.0Q253.1 138.2 255.6 139.8Q258.1 141.4 261.5 141.4L261.5 141.4Q264.8 141.4 267.3 139.8Q269.8 138.2 271.2 135.0Q272.5 131.8 272.5 127.2ZM295.6 149L286.5 149L286.5 116.3L295.3 116.3L295.3 122.0L295.7 122.0Q296.6 118.9 298.7 117.4Q300.8 115.8 303.5 115.8L303.5 115.8Q304.2 115.8 305.0 115.9Q305.8 116.0 306.4 116.1L306.4 116.1L306.4 124.2Q305.8 124.0 304.6 123.8Q303.5 123.7 302.6 123.7L302.6 123.7Q300.6 123.7 299.0 124.6Q297.4 125.4 296.5 126.9Q295.6 128.5 295.6 130.5L295.6 130.5L295.6 149ZM309.1 105.4L318.1 105.4L318.1 149L309.1 149L309.1 105.4ZM332.7 149.6L332.7 149.6Q329.6 149.6 327.1 148.5Q324.7 147.4 323.3 145.3Q321.9 143.1 321.9 139.9L321.9 139.9Q321.9 137.1 322.9 135.3Q323.9 133.4 325.6 132.3Q327.3 131.2 329.5 130.6Q331.7 130.0 334.1 129.8L334.1 129.8Q337.0 129.5 338.7 129.2Q340.5 129.0 341.3 128.4Q342.1 127.9 342.1 126.8L342.1 126.8L342.1 126.7Q342.1 124.7 340.8 123.6Q339.5 122.5 337.2 122.5L337.2 122.5Q334.8 122.5 333.3 123.5Q331.9 124.6 331.4 126.2L331.4 126.2L323.0 125.6Q323.6 122.6 325.5 120.4Q327.4 118.2 330.4 117.0Q333.3 115.8 337.3 115.8L337.3 115.8Q340.0 115.8 342.5 116.5Q345.0 117.1 346.9 118.5Q348.9 119.8 350.0 121.9Q351.1 124.0 351.1 126.9L351.1 126.9L351.1 149L342.5 149L342.5 144.5L342.3 144.5Q341.5 146.0 340.2 147.2Q338.9 148.3 337.0 149.0Q335.1 149.6 332.7 149.6ZM335.3 143.4L335.3 143.4Q337.3 143.4 338.9 142.6Q340.4 141.8 341.3 140.4Q342.1 139.0 342.1 137.3L342.1 137.3L342.1 133.8Q341.7 134.1 341.0 134.3Q340.2 134.6 339.3 134.7Q338.4 134.9 337.5 135.1Q336.6 135.2 335.8 135.3L335.8 135.3Q334.2 135.5 333.0 136.0Q331.8 136.6 331.2 137.4Q330.5 138.3 330.5 139.6L330.5 139.6Q330.5 141.4 331.9 142.4Q333.2 143.4 335.3 143.4ZM365.3 130.1L365.3 130.1L365.3 149L356.2 149L356.2 116.3L364.9 116.3L364.9 122.0L365.2 122.0Q366.3 119.2 368.9 117.5Q371.4 115.8 375.1 115.8L375.1 115.8Q378.5 115.8 381.0 117.3Q383.6 118.8 385.0 121.6Q386.4 124.3 386.4 128.2L386.4 128.2L386.4 149L377.3 149L377.3 129.8Q377.3 126.8 375.8 125.1Q374.2 123.4 371.5 123.4L371.5 123.4Q369.6 123.4 368.2 124.2Q366.9 125.0 366.1 126.5Q365.3 128.0 365.3 130.1ZM403.6 149.5L403.6 149.5Q399.8 149.5 396.8 147.6Q393.8 145.7 392.1 141.9Q390.3 138.2 390.3 132.7L390.3 132.7Q390.3 127.1 392.1 123.3Q393.9 119.6 396.9 117.7Q399.9 115.8 403.5 115.8L403.5 115.8Q406.3 115.8 408.1 116.8Q410.0 117.7 411.1 119.1Q412.3 120.4 412.9 121.8L412.9 121.8L413.1 121.8L413.1 105.4L422.2 105.4L422.2 149L413.2 149L413.2 143.8L412.9 143.8Q412.2 145.1 411.1 146.5Q409.9 147.8 408.1 148.7Q406.2 149.5 403.6 149.5ZM406.4 142.3L406.4 142.3Q408.6 142.3 410.2 141.1Q411.7 139.9 412.5 137.7Q413.3 135.6 413.3 132.6L413.3 132.6Q413.3 129.7 412.5 127.6Q411.7 125.4 410.2 124.2Q408.6 123.1 406.4 123.1L406.4 123.1Q404.2 123.1 402.7 124.3Q401.1 125.5 400.4 127.7Q399.6 129.8 399.6 132.6L399.6 132.6Q399.6 135.5 400.4 137.7Q401.2 139.9 402.7 141.1Q404.2 142.3 406.4 142.3ZM442.4 149.6L442.4 149.6Q437.4 149.6 433.8 147.5Q430.2 145.4 428.3 141.6Q426.3 137.8 426.3 132.8L426.3 132.8Q426.3 127.7 428.3 123.9Q430.2 120.1 433.8 118.0Q437.4 115.8 442.4 115.8L442.4 115.8Q447.4 115.8 451.0 118.0Q454.6 120.1 456.6 123.9Q458.5 127.7 458.5 132.8L458.5 132.8Q458.5 137.8 456.6 141.6Q454.6 145.4 451.0 147.5Q447.4 149.6 442.4 149.6ZM442.5 142.6L442.5 142.6Q444.7 142.6 446.2 141.3Q447.7 140.0 448.5 137.8Q449.3 135.6 449.3 132.7L449.3 132.7Q449.3 129.8 448.5 127.6Q447.7 125.4 446.2 124.1Q444.7 122.8 442.5 122.8L442.5 122.8Q440.2 122.8 438.6 124.1Q437.1 125.4 436.3 127.6Q435.5 129.8 435.5 132.7L435.5 132.7Q435.5 135.6 436.3 137.8Q437.1 140.0 438.6 141.3Q440.2 142.6 442.5 142.6Z "/></clipPath><defs><pattern id="satori_pattern_id-0_0" x="0" y="0" width="1" height="1" patternUnits="objectBoundingBox"><linearGradient id="satori_biid-0_0" x1="0" y1="0" x2="1" y2="0" spreadMethod="pad"><stop offset="0%" stop-color="rgb(0, 124, 240)"/><stop offset="100%" stop-color="rgb(0, 223, 216)"/></linearGradient><rect x="0" y="0" width="221" height="73" fill="url(#satori_biid-0_0)"/></pattern></defs><mask id="satori_om-id-0"><rect x="238" y="91" width="221" height="73" fill="#fff"/></mask><rect x="238" y="91" width="221" height="73" fill="url(#satori_pattern_id-0_0)" clip-path="url(#satori_bct-id-0)"/><clipPath id="satori_bct-id-1"><path d="M258.3 188.3L247.3 222L237.4 222L252.5 178.4L264.4 178.4L279.4 222L269.5 222L258.6 188.3L258.3 188.3ZM246.7 212.0L246.7 204.8L270.0 204.8L270.0 212.0L246.7 212.0ZM309.0 198.6L309.0 198.6L300.6 199.1Q300.4 198.1 299.7 197.2Q299.0 196.3 297.9 195.8Q296.7 195.3 295.2 195.3L295.2 195.3Q293.1 195.3 291.6 196.2Q290.2 197.0 290.2 198.5L290.2 198.5Q290.2 199.7 291.1 200.5Q292.0 201.3 294.3 201.8L294.3 201.8L300.2 203.0Q305.0 204.0 307.4 206.1Q309.7 208.3 309.7 211.9L309.7 211.9Q309.7 215.1 307.8 217.5Q305.9 219.9 302.7 221.3Q299.4 222.6 295.1 222.6L295.1 222.6Q288.6 222.6 284.8 219.9Q280.9 217.2 280.3 212.5L280.3 212.5L289.2 212.0Q289.6 214.0 291.2 215.1Q292.7 216.1 295.2 216.1L295.2 216.1Q297.5 216.1 299.0 215.2Q300.5 214.2 300.5 212.8L300.5 212.8Q300.5 211.5 299.4 210.7Q298.4 209.9 296.3 209.5L296.3 209.5L290.6 208.4Q285.8 207.4 283.5 205.1Q281.2 202.7 281.2 199.0L281.2 199.0Q281.2 195.9 282.9 193.6Q284.6 191.3 287.7 190.1Q290.8 188.8 295.0 188.8L295.0 188.8Q301.2 188.8 304.8 191.5Q308.4 194.1 309.0 198.6ZM328.2 222.6L328.2 222.6Q323.2 222.6 319.6 220.5Q316.0 218.4 314.0 214.5Q312.1 210.7 312.1 205.8L312.1 205.8Q312.1 200.7 314.1 196.9Q316.0 193.1 319.6 191.0Q323.2 188.8 328.2 188.8L328.2 188.8Q332.5 188.8 335.7 190.4Q338.9 192.0 340.8 194.8Q342.6 197.6 342.8 201.4L342.8 201.4L334.3 201.4Q333.9 198.9 332.4 197.4Q330.8 195.9 328.3 195.9L328.3 195.9Q326.2 195.9 324.7 197.1Q323.1 198.2 322.2 200.4Q321.3 202.5 321.3 205.6L321.3 205.6Q321.3 208.8 322.2 211.0Q323.1 213.2 324.6 214.3Q326.2 215.5 328.3 215.5L328.3 215.5Q329.9 215.5 331.1 214.8Q332.4 214.2 333.2 213.0Q334.0 211.7 334.3 210.0L334.3 210.0L342.8 210.0Q342.6 213.8 340.8 216.6Q339.0 219.4 335.8 221.0Q332.6 222.6 328.2 222.6ZM356.0 222.6L356.0 222.6Q352.9 222.6 350.4 221.5Q348.0 220.4 346.6 218.3Q345.1 216.1 345.1 212.9L345.1 212.9Q345.1 210.1 346.1 208.3Q347.1 206.4 348.9 205.3Q350.6 204.2 352.8 203.6Q355.0 203.0 357.4 202.8L357.4 202.8Q360.3 202.5 362.0 202.2Q363.8 202.0 364.6 201.4Q365.4 200.9 365.4 199.8L365.4 199.8L365.4 199.7Q365.4 197.7 364.1 196.6Q362.8 195.5 360.5 195.5L360.5 195.5Q358.1 195.5 356.6 196.5Q355.2 197.6 354.7 199.2L354.7 199.2L346.3 198.6Q346.9 195.6 348.8 193.4Q350.7 191.2 353.7 190.0Q356.6 188.8 360.5 188.8L360.5 188.8Q363.3 188.8 365.8 189.5Q368.3 190.1 370.2 191.5Q372.2 192.8 373.3 194.9Q374.4 197.0 374.4 199.9L374.4 199.9L374.4 222L365.8 222L365.8 217.5L365.6 217.5Q364.8 219.0 363.5 220.2Q362.1 221.3 360.3 222.0Q358.4 222.6 356.0 222.6ZM358.6 216.4L358.6 216.4Q360.6 216.4 362.1 215.6Q363.7 214.8 364.6 213.4Q365.4 212.0 365.4 210.3L365.4 210.3L365.4 206.8Q365.0 207.1 364.3 207.3Q363.5 207.6 362.6 207.7Q361.7 207.9 360.8 208.1Q359.9 208.2 359.1 208.3L359.1 208.3Q357.5 208.5 356.3 209.0Q355.1 209.6 354.5 210.4Q353.8 211.3 353.8 212.6L353.8 212.6Q353.8 214.4 355.2 215.4Q356.5 216.4 358.6 216.4ZM388.6 203.1L388.6 203.1L388.6 222L379.5 222L379.5 189.3L388.1 189.3L388.1 195.0L388.5 195.0Q389.6 192.2 392.2 190.5Q394.7 188.8 398.4 188.8L398.4 188.8Q401.8 188.8 404.3 190.3Q406.8 191.8 408.3 194.6Q409.7 197.3 409.7 201.2L409.7 201.2L409.7 222L400.6 222L400.6 202.8Q400.6 199.8 399.1 198.1Q397.5 196.4 394.8 196.4L394.8 196.4Q392.9 196.4 391.5 197.2Q390.1 198.0 389.4 199.5Q388.6 201.0 388.6 203.1ZM423.9 222L414.8 222L414.8 189.3L423.9 189.3L423.9 222ZM419.4 185.1L419.4 185.1Q417.3 185.1 415.9 183.7Q414.5 182.3 414.5 180.5L414.5 180.5Q414.5 178.6 415.9 177.2Q417.3 175.9 419.4 175.9L419.4 175.9Q421.4 175.9 422.8 177.2Q424.3 178.6 424.3 180.5L424.3 180.5Q424.3 182.3 422.8 183.7Q421.4 185.1 419.4 185.1ZM443.9 222.6L443.9 222.6Q438.9 222.6 435.3 220.5Q431.7 218.4 429.8 214.6Q427.8 210.8 427.8 205.8L427.8 205.8Q427.8 200.7 429.8 196.9Q431.7 193.1 435.3 191.0Q438.9 188.8 443.9 188.8L443.9 188.8Q448.9 188.8 452.5 191.0Q456.1 193.1 458.1 196.9Q460.0 200.7 460.0 205.8L460.0 205.8Q460.0 210.8 458.1 214.6Q456.1 218.4 452.5 220.5Q448.9 222.6 443.9 222.6ZM444.0 215.6L444.0 215.6Q446.2 215.6 447.7 214.3Q449.2 213.0 450.0 210.8Q450.8 208.6 450.8 205.7L450.8 205.7Q450.8 202.8 450.0 200.6Q449.2 198.4 447.7 197.1Q446.2 195.8 444.0 195.8L444.0 195.8Q441.7 195.8 440.1 197.1Q438.6 198.4 437.8 200.6Q437.0 202.8 437.0 205.7L437.0 205.7Q437.0 208.6 437.8 210.8Q438.6 213.0 440.1 214.3Q441.7 215.6 444.0 215.6Z "/></clipPath><defs><pattern id="satori_pattern_id-1_0" x="0" y="0" width="1" height="1" patternUnits="objectBoundingBox"><linearGradient id="satori_biid-1_0" x1="0" y1="0" x2="1" y2="0" spreadMethod="pad"><stop offset="0%" stop-color="rgb(121, 40, 202)"/><stop offset="100%" stop-color="rgb(255, 0, 128)"/></linearGradient><rect x="0" y="0" width="226" height="73" fill="url(#satori_biid-1_0)"/></pattern></defs><mask id="satori_om-id-1"><rect x="236" y="164" width="226" height="73" fill="#fff"/></mask><rect x="236" y="164" width="226" height="73" fill="url(#satori_pattern_id-1_0)" clip-path="url(#satori_bct-id-1)"/><clipPath id="satori_bct-id-2"><path d="M73.0 295L63.8 295L63.8 251.4L92.7 251.4L92.7 259.0L73.0 259.0L73.0 269.4L90.8 269.4L90.8 277.0L73.0 277.0L73.0 295ZM115.7 281.1L115.7 281.1L115.7 262.3L124.7 262.3L124.7 295L116.0 295L116.0 289.1L115.7 289.1Q114.6 291.9 112.0 293.7Q109.4 295.4 105.7 295.4L105.7 295.4Q102.5 295.4 100.0 293.9Q97.5 292.4 96.1 289.7Q94.7 286.9 94.7 283.1L94.7 283.1L94.7 262.3L103.7 262.3L103.7 281.5Q103.8 284.4 105.3 286.1Q106.8 287.8 109.4 287.8L109.4 287.8Q111.1 287.8 112.5 287.0Q113.9 286.2 114.8 284.8Q115.7 283.3 115.7 281.1ZM130.0 251.4L139.1 251.4L139.1 295L130.0 295L130.0 251.4ZM144.3 251.4L153.4 251.4L153.4 295L144.3 295L144.3 251.4ZM159.1 273.5L179.0 273.5L179.0 280.7L159.1 280.7L159.1 273.5ZM217.4 263.9L208.6 263.9Q208.3 261.3 206.4 259.9Q204.5 258.5 201.1 258.5L201.1 258.5Q198.9 258.5 197.3 259.1Q195.8 259.7 194.9 260.8Q194.1 262.0 194.1 263.4L194.1 263.4Q194.1 264.5 194.6 265.4Q195.2 266.3 196.1 266.9Q197.1 267.5 198.3 268.0Q199.6 268.5 201.0 268.8L201.0 268.8L204.9 269.7Q207.8 270.3 210.2 271.4Q212.6 272.5 214.3 274.0Q216.1 275.6 217.0 277.7Q218.0 279.8 218.0 282.5L218.0 282.5Q218.0 286.5 216.0 289.5Q214.0 292.4 210.2 294.0Q206.4 295.6 201.1 295.6L201.1 295.6Q195.8 295.6 191.9 294.0Q188.0 292.4 185.8 289.2Q183.6 286.0 183.5 281.3L183.5 281.3L192.4 281.3Q192.6 283.5 193.7 285.0Q194.8 286.4 196.7 287.1Q198.6 287.9 201.0 287.9L201.0 287.9Q203.3 287.9 205.1 287.2Q206.8 286.5 207.8 285.3Q208.7 284.1 208.7 282.5L208.7 282.5Q208.7 281.0 207.9 280.0Q207.0 279.0 205.3 278.3Q203.7 277.6 201.3 277.1L201.3 277.1L196.5 275.9Q191.0 274.5 187.8 271.7Q184.6 268.8 184.7 264.0L184.7 264.0Q184.6 260.0 186.8 257.1Q188.9 254.1 192.7 252.4Q196.4 250.8 201.2 250.8L201.2 250.8Q206.1 250.8 209.7 252.4Q213.3 254.1 215.3 257.1Q217.4 260.0 217.4 263.9L217.4 263.9ZM219.7 262.3L239.4 262.3L239.4 269.1L219.7 269.1L219.7 262.3ZM224.2 286.1L224.2 254.4L233.3 254.4L233.3 284.9Q233.3 286.2 233.7 286.9Q234.1 287.6 234.7 287.9Q235.4 288.1 236.4 288.1L236.4 288.1Q237.0 288.1 237.6 288.0Q238.3 287.9 238.6 287.8L238.6 287.8L240.0 294.6Q239.4 294.8 238.1 295.1Q236.9 295.4 235.1 295.4L235.1 295.4Q231.8 295.6 229.4 294.6Q226.9 293.6 225.5 291.5Q224.2 289.4 224.2 286.1L224.2 286.1ZM252.7 295.6L252.7 295.6Q249.5 295.6 247.1 294.5Q244.6 293.4 243.2 291.3Q241.8 289.1 241.8 285.9L241.8 285.9Q241.8 283.1 242.8 281.3Q243.8 279.4 245.5 278.3Q247.3 277.2 249.5 276.6Q251.7 276.0 254.1 275.8L254.1 275.8Q257.0 275.5 258.7 275.2Q260.5 275.0 261.2 274.4Q262.0 273.9 262.0 272.8L262.0 272.8L262.0 272.7Q262.0 270.7 260.8 269.6Q259.5 268.5 257.2 268.5L257.2 268.5Q254.7 268.5 253.3 269.5Q251.8 270.6 251.4 272.2L251.4 272.2L243.0 271.6Q243.6 268.6 245.5 266.4Q247.3 264.2 250.3 263.0Q253.3 261.8 257.2 261.8L257.2 261.8Q259.9 261.8 262.4 262.5Q264.9 263.1 266.9 264.5Q268.8 265.8 270.0 267.9Q271.1 270.0 271.1 272.9L271.1 272.9L271.1 295L262.5 295L262.5 290.5L262.2 290.5Q261.5 292.0 260.1 293.2Q258.8 294.3 257.0 295.0Q255.1 295.6 252.7 295.6ZM255.3 289.4L255.3 289.4Q257.3 289.4 258.8 288.6Q260.3 287.8 261.2 286.4Q262.1 285.0 262.1 283.3L262.1 283.3L262.1 279.8Q261.7 280.1 260.9 280.3Q260.2 280.6 259.3 280.7Q258.4 280.9 257.4 281.1Q256.5 281.2 255.8 281.3L255.8 281.3Q254.2 281.5 253.0 282.0Q251.8 282.6 251.1 283.4Q250.5 284.3 250.5 285.6L250.5 285.6Q250.5 287.4 251.8 288.4Q253.2 289.4 255.3 289.4ZM290.9 295.6L290.9 295.6Q285.9 295.6 282.3 293.5Q278.7 291.4 276.8 287.5Q274.8 283.7 274.8 278.8L274.8 278.8Q274.8 273.7 276.8 269.9Q278.7 266.1 282.3 264.0Q285.9 261.8 290.9 261.8L290.9 261.8Q295.2 261.8 298.4 263.4Q301.6 265.0 303.5 267.8Q305.4 270.6 305.6 274.4L305.6 274.4L297.0 274.4Q296.6 271.9 295.1 270.4Q293.5 268.9 291.1 268.9L291.1 268.9Q288.9 268.9 287.4 270.1Q285.8 271.2 284.9 273.4Q284.1 275.5 284.1 278.6L284.1 278.6Q284.1 281.8 284.9 284.0Q285.8 286.2 287.4 287.3Q288.9 288.5 291.1 288.5L291.1 288.5Q292.6 288.5 293.9 287.8Q295.1 287.2 295.9 286.0Q296.7 284.7 297.0 283.0L297.0 283.0L305.6 283.0Q305.3 286.8 303.5 289.6Q301.7 292.4 298.5 294.0Q295.3 295.6 290.9 295.6ZM323.6 278.7L317.6 285.6L317.6 274.7L319.0 274.7L329.5 262.3L339.9 262.3L325.8 278.7L323.6 278.7ZM318.5 295L309.4 295L309.4 251.4L318.5 251.4L318.5 295ZM340.5 295L329.9 295L320.2 280.7L326.3 274.3L340.5 295Z M371.9 295L371.9 295L356.4 295L356.4 251.4L372.0 251.4Q378.6 251.4 383.4 254.0Q388.1 256.6 390.7 261.5Q393.2 266.3 393.2 273.1L393.2 273.1Q393.2 280.0 390.7 284.9Q388.1 289.8 383.3 292.4Q378.5 295 371.9 295ZM365.7 259.3L365.7 287.1L371.5 287.1Q375.6 287.1 378.4 285.6Q381.2 284.2 382.6 281.1Q384.0 278.0 384.0 273.1L384.0 273.1Q384.0 268.3 382.6 265.2Q381.2 262.2 378.4 260.7Q375.6 259.3 371.5 259.3L371.5 259.3L365.7 259.3ZM412.8 295.6L412.8 295.6Q407.8 295.6 404.1 293.6Q400.5 291.5 398.5 287.7Q396.6 284.0 396.6 278.8L396.6 278.8Q396.6 273.7 398.5 269.9Q400.5 266.1 404.1 264.0Q407.6 261.8 412.4 261.8L412.4 261.8Q415.7 261.8 418.5 262.9Q421.3 263.9 423.4 266.0Q425.5 268.0 426.7 271.2Q427.8 274.3 427.8 278.5L427.8 278.5L427.8 281.0L400.2 281.0L400.2 275.3L419.3 275.3Q419.3 273.4 418.4 271.9Q417.6 270.3 416.1 269.5Q414.6 268.6 412.6 268.6L412.6 268.6Q410.5 268.6 408.9 269.6Q407.4 270.5 406.5 272.1Q405.6 273.7 405.5 275.6L405.5 275.6L405.5 281.0Q405.5 283.4 406.5 285.2Q407.4 286.9 409.0 287.9Q410.7 288.9 413.0 288.9L413.0 288.9Q414.5 288.9 415.7 288.4Q417.0 288.0 417.9 287.2Q418.8 286.3 419.2 285.1L419.2 285.1L427.6 285.6Q427.0 288.7 425.0 290.9Q423.1 293.1 420.0 294.4Q416.9 295.6 412.8 295.6ZM451.7 262.3L461.4 262.3L449.9 295L439.7 295L428.2 262.3L437.8 262.3L444.6 285.7L445.0 285.7L451.7 262.3ZM477.8 295.6L477.8 295.6Q472.8 295.6 469.1 293.6Q465.5 291.5 463.5 287.7Q461.6 284.0 461.6 278.8L461.6 278.8Q461.6 273.7 463.5 269.9Q465.5 266.1 469.1 264.0Q472.6 261.8 477.5 261.8L477.5 261.8Q480.7 261.8 483.5 262.9Q486.3 263.9 488.4 266.0Q490.5 268.0 491.7 271.2Q492.8 274.3 492.8 278.5L492.8 278.5L492.8 281.0L465.2 281.0L465.2 275.3L484.3 275.3Q484.3 273.4 483.4 271.9Q482.6 270.3 481.1 269.5Q479.6 268.6 477.6 268.6L477.6 268.6Q475.5 268.6 474.0 269.6Q472.4 270.5 471.5 272.1Q470.6 273.7 470.6 275.6L470.6 275.6L470.6 281.0Q470.6 283.4 471.5 285.2Q472.4 286.9 474.0 287.9Q475.7 288.9 478.0 288.9L478.0 288.9Q479.5 288.9 480.7 288.4Q482 288.0 482.9 287.2Q483.8 286.3 484.3 285.1L484.3 285.1L492.7 285.6Q492.0 288.7 490.0 290.9Q488.1 293.1 485.0 294.4Q481.9 295.6 477.8 295.6ZM496.8 251.4L505.8 251.4L505.8 295L496.8 295L496.8 251.4ZM525.9 295.6L525.9 295.6Q520.9 295.6 517.3 293.5Q513.7 291.4 511.7 287.6Q509.8 283.8 509.8 278.8L509.8 278.8Q509.8 273.7 511.7 269.9Q513.7 266.1 517.3 264.0Q520.9 261.8 525.9 261.8L525.9 261.8Q530.8 261.8 534.5 264.0Q538.1 266.1 540.0 269.9Q542.0 273.7 542.0 278.8L542.0 278.8Q542.0 283.8 540.0 287.6Q538.1 291.4 534.5 293.5Q530.8 295.6 525.9 295.6ZM525.9 288.6L525.9 288.6Q528.2 288.6 529.7 287.3Q531.2 286.0 532.0 283.8Q532.8 281.6 532.8 278.7L532.8 278.7Q532.8 275.8 532.0 273.6Q531.2 271.4 529.7 270.1Q528.2 268.8 525.9 268.8L525.9 268.8Q523.6 268.8 522.1 270.1Q520.5 271.4 519.8 273.6Q519.0 275.8 519.0 278.7L519.0 278.7Q519.0 281.6 519.8 283.8Q520.5 286.0 522.1 287.3Q523.6 288.6 525.9 288.6ZM555.0 307.3L545.9 307.3L545.9 262.3L554.9 262.3L554.9 267.8L555.3 267.8Q555.9 266.4 557.0 265.1Q558.1 263.7 560.0 262.8Q561.8 261.8 564.6 261.8L564.6 261.8Q568.2 261.8 571.2 263.7Q574.2 265.6 576.0 269.3Q577.8 273.1 577.8 278.7L577.8 278.7Q577.8 284.2 576.1 287.9Q574.3 291.7 571.3 293.6Q568.3 295.5 564.6 295.5L564.6 295.5Q561.9 295.5 560.1 294.7Q558.2 293.8 557.1 292.5Q555.9 291.1 555.3 289.8L555.3 289.8L555.0 289.8L555.0 307.3ZM554.8 278.6L554.8 278.6Q554.8 281.6 555.6 283.7Q556.4 285.9 557.9 287.1Q559.5 288.3 561.7 288.3L561.7 288.3Q563.9 288.3 565.4 287.1Q567.0 285.9 567.8 283.7Q568.6 281.5 568.6 278.6L568.6 278.6Q568.6 275.8 567.8 273.7Q567.0 271.5 565.4 270.3Q563.9 269.1 561.7 269.1L561.7 269.1Q559.5 269.1 557.9 270.2Q556.4 271.4 555.6 273.6Q554.8 275.7 554.8 278.6ZM596.8 295.6L596.8 295.6Q591.7 295.6 588.1 293.6Q584.5 291.5 582.5 287.7Q580.5 284.0 580.5 278.8L580.5 278.8Q580.5 273.7 582.5 269.9Q584.5 266.1 588.0 264.0Q591.6 261.8 596.4 261.8L596.4 261.8Q599.6 261.8 602.4 262.9Q605.3 263.9 607.3 266.0Q609.4 268.0 610.6 271.2Q611.8 274.3 611.8 278.5L611.8 278.5L611.8 281.0L584.2 281.0L584.2 275.3L603.2 275.3Q603.2 273.4 602.4 271.9Q601.5 270.3 600.0 269.5Q598.5 268.6 596.6 268.6L596.6 268.6Q594.5 268.6 592.9 269.6Q591.3 270.5 590.4 272.1Q589.5 273.7 589.5 275.6L589.5 275.6L589.5 281.0Q589.5 283.4 590.4 285.2Q591.3 286.9 593.0 287.9Q594.6 288.9 596.9 288.9L596.9 288.9Q598.4 288.9 599.7 288.4Q600.9 288.0 601.8 287.2Q602.7 286.3 603.2 285.1L603.2 285.1L611.6 285.6Q611.0 288.7 609.0 290.9Q607.0 293.1 603.9 294.4Q600.8 295.6 596.8 295.6ZM624.8 295L615.7 295L615.7 262.3L624.5 262.3L624.5 268.0L624.9 268.0Q625.8 264.9 627.9 263.4Q630.0 261.8 632.7 261.8L632.7 261.8Q633.4 261.8 634.2 261.9Q635.0 262.0 635.6 262.1L635.6 262.1L635.6 270.2Q634.9 270.0 633.8 269.8Q632.7 269.7 631.7 269.7L631.7 269.7Q629.7 269.7 628.2 270.6Q626.6 271.4 625.7 272.9Q624.8 274.5 624.8 276.5L624.8 276.5L624.8 295Z "/></clipPath><defs><pattern id="satori_pattern_id-2_0" x="0" y="0" width="1" height="1" patternUnits="objectBoundingBox"><linearGradient id="satori_biid-2_0" x1="0" y1="0" x2="1" y2="0" spreadMethod="pad"><stop offset="0%" stop-color="rgb(255, 77, 77)"/><stop offset="100%" stop-color="rgb(249, 203, 40)"/></linearGradient><rect x="0" y="0" width="577" height="73" fill="url(#satori_biid-2_0)"/></pattern></defs><mask id="satori_om-id-2"><rect x="60" y="237" width="577" height="73" fill="#fff"/></mask><rect x="60" y="237" width="577" height="73" fill="url(#satori_pattern_id-2_0)" clip-path="url(#satori_bct-id-2)"/></svg>